PathFileType	4	(X/Y/Z)	/Users/mathieubourgeois/Desktop/Analyse/Traitement/Sujet_07/Data/Transformed_Sujet_07_velo_60.trc
DataRate	CameraRate	NumFrames	NumMarkers	Units	OrigDataRate	OrigDataStartFrame	OrigNumFrames
120.000000	120.000000	6	36	mm	120.000000	233	1868
Frame#	Time	RFHD			LFHD			RBHD			LBHD			C7			CLAV			RSHO			LSHO			STRN			T10			RBWT			LBWT			RFWT			LFWT			RKNI			LKNI			RKNE			LKNE			LANI			RANI			LANE			RANE			LTOE			RTOE			LHEE			RHEE			RHUM			LHUM			RRAD			LRAD			RWRA			RWRB			LWRA			LWRB			LCAR			RCAR			
		X1	Y1	Z1	X2	Y2	Z2	X3	Y3	Z3	X4	Y4	Z4	X5	Y5	Z5	X6	Y6	Z6	X7	Y7	Z7	X8	Y8	Z8	X9	Y9	Z9	X10	Y10	Z10	X11	Y11	Z11	X12	Y12	Z12	X13	Y13	Z13	X14	Y14	Z14	X15	Y15	Z15	X16	Y16	Z16	X17	Y17	Z17	X18	Y18	Z18	X19	Y19	Z19	X20	Y20	Z20	X21	Y21	Z21	X22	Y22	Z22	X23	Y23	Z23	X24	Y24	Z24	X25	Y25	Z25	X26	Y26	Z26	X27	Y27	Z27	X28	Y28	Z28	X29	Y29	Z29	X30	Y30	Z30	X31	Y31	Z31	X32	Y32	Z32	X33	Y33	Z33	X34	Y34	Z34	X35	Y35	Z35	X36	Y36	Z36	

234	1.941666666666667	238.23828125	1366.951904296875	160.9998168945312	246.1980438232422	1343.169311523438	30.18175315856928	192.3321990966797	1511.675415039062	148.9437713623046	197.9309234619141	1501.623413085938	4.440725326538018	36.93498611450195	1503.018676757812	61.72853088378898	17.54509544372558	1366.953491210938	72.46553802490226	58.84563446044919	1429.270385742188	218.3863830566405	66.69714355468751	1450.705322265625	-75.67219543457038	-140.8758544921875	1294.551391601562	63.52571487426749	-213.0552520751953	1523.816284179688	56.29193115234363	-455.1500549316406	1298.980346679688	126.4546661376952	-460.1560668945312	1296.446655273438	12.68397998809801	-292.8461303710938	1218.533203125	167.7961578369139	-303.2453002929688	1217.891357421875	-46.42116165161143	-0.51882261037828	899.23681640625	119.9855346679687	-233.0689086914062	686.6845703125	-35.34199142456062	-16.9702129364014	956.2269287109375	222.3184051513671	-212.4070892333984	736.2220458984375	-142.889862060547	-338.1148376464844	318.8592529296875	-46.57424163818366	-168.1538696289063	554.0037841796875	124.3663024902343	-360.0644226074219	311.4423217773438	-133.9113159179688	-193.958984375	551.8698120117188	212.3985137939453	-179.1492767333984	195.5952453613281	-109.2521743774414	1.954938054084753	463.380126953125	200.7901000976562	-418.0227661132812	314.7244873046875	-93.37846374511726	-253.4188079833985	535.457763671875	169.1390380859374	69.7370910644531	1093.659912109375	252.9447479248046	84.36383056640626	1110.802856445312	-136.4850616455079	115.4780349731445	1119.973266601562	296.7935791015624	144.6840209960938	1130.374877929688	-158.4912719726563	318.3964843749999	936.8067626953125	255.0582580566406	280.9840087890624	899.6647338867188	309.072509765625	316.9607238769531	931.6981811523438	-102.734245300293	276.8234558105469	887.5707397460938	-153.6670227050782	372.17236328125	915.408447265625	-192.1132202148438	370.9030151367187	925.7694702148438	342.5531005859375	
235	1.95	237.75390625	1366.786865234375	160.7669372558593	245.5594940185547	1342.974487304688	29.91355133056635	191.8169860839843	1511.528564453125	148.6470947265624	197.3389282226562	1501.425659179688	4.129712104797295	36.35253524780273	1502.820190429688	61.50780487060538	16.94822692871093	1366.78369140625	72.22100830078116	58.46954345703122	1429.13134765625	218.0804901123046	66.0070266723633	1450.410888671875	-75.9569396972657	-141.5123748779297	1294.52734375	63.4122772216796	-213.5926818847656	1523.846435546875	56.54954910278308	-455.4446105957031	1298.797485351562	127.2432937622069	-460.9055786132812	1296.52392578125	13.45589923858629	-293.0295104980469	1218.140380859375	167.9190979003905	-303.9835815429688	1218.23583984375	-46.26597976684581	-1.822324752807632	895.4749755859375	119.8525695800781	-229.1251220703125	689.8345947265625	-35.8254699707032	-18.41770744323733	952.0487060546875	222.0193328857421	-208.0040740966797	739.1092529296875	-143.1325988769532	-343.5928955078125	325.0760192871094	-46.31019592285163	-163.6021270751953	546.59423828125	124.6174240112304	-365.5694580078125	318.1927490234375	-133.8074340820313	-188.489486694336	543.98828125	212.3768157958984	-186.4050140380859	199.7927398681641	-109.3838272094727	9.295783996582006	459.84423828125	201.1212158203125	-423.5912780761719	322.4155578613281	-93.15350341796882	-247.5482330322266	526.298095703125	169.1216888427734	69.56352996826169	1093.545288085938	252.8932800292968	84.03799438476564	1110.54443359375	-136.2722625732422	115.3044738769531	1119.906494140625	296.7029113769531	144.3005981445313	1130.132568359375	-158.3669128417969	318.3319702148437	936.834228515625	255.0417022705078	280.9279479980468	899.7025146484375	309.0491943359375	316.6253967285156	931.4951782226562	-102.8451080322266	276.764404296875	887.5626220703125	-153.622314453125	372.1007690429688	915.456298828125	-192.0987243652344	370.8398132324218	925.8281860351562	342.542236328125	
236	1.958333333333333	237.0996856689453	1366.6552734375	160.4868011474609	244.9935607910156	1342.780883789062	29.65540504455561	191.2589569091797	1511.38037109375	148.3437194824218	196.7875671386719	1501.216918945312	3.816766023635796	35.80290985107421	1502.673461914062	61.22417068481437	16.35305213928222	1366.573120117188	72.0116653442382	58.13109588623044	1429.000366210938	217.7939453124999	65.38966369628908	1450.09375	-76.28094482421882	-142.1410980224609	1294.507568359375	63.39952087402335	-214.1402740478516	1523.878051757812	56.77000808715808	-455.7126159667969	1298.598876953125	128.0287322998045	-461.5798950195312	1296.599243164062	14.23193645477281	-293.1854248046875	1217.689819335938	167.9929351806639	-304.6415100097656	1218.555053710938	-45.97402191162121	-2.403870105743423	890.0863037109375	119.3878936767578	-224.2991943359375	693.3291015625	-36.78429031372077	-20.11574363708499	947.4901123046875	221.7812042236328	-203.2551116943359	742.2440185546875	-143.4781036376954	-348.4338684082031	331.9287414550781	-46.28616714477545	-158.2125396728516	538.7933349609375	124.4892883300781	-370.7123718261719	325.5140686035156	-133.699676513672	-183.0946350097657	535.8171997070312	212.2307434082031	-193.4788970947266	204.5009613037109	-109.5628356933594	16.36040496826169	455.7002258300781	201.4385833740234	-428.7296752929688	330.7451782226562	-93.01278686523445	-241.9161071777344	517.015869140625	169.0348815917968	69.39470672607419	1093.407592773438	252.7870178222656	83.7405242919922	1110.261962890625	-136.0393218994141	115.1371002197265	1119.814086914062	296.5852661132812	143.9263610839844	1129.911254882812	-158.2256622314453	318.2796325683593	936.8580322265625	255.0132141113281	280.8803710937499	899.7291870117188	309.0217590332031	316.1913452148438	931.1857299804688	-102.9398574829102	276.6963195800781	887.5772705078125	-153.6045837402344	372.0216979980469	915.5137939453125	-192.0989837646484	370.7837219238281	925.8889770507812	342.5278930664062	
237	1.966666666666667	236.5517120361328	1366.500732421875	160.2260284423828	244.353515625	1342.54443359375	29.3708820343017	190.7090454101562	1511.239990234375	147.9857025146484	196.2201995849609	1501.000732421875	3.480986595153741	35.26224899291991	1502.388793945312	60.81225204467765	15.85320091247558	1366.377807617188	71.78629302978507	57.82427597045896	1428.8134765625	217.4921112060546	64.7719192504883	1449.800537109375	-76.66593170166023	-142.7608489990234	1294.471313476562	63.54046630859366	-214.6767120361328	1523.936401367188	57.00537490844714	-455.9864196777344	1298.380981445312	128.7395782470702	-462.18505859375	1296.610473632812	14.92459106445299	-293.3177185058594	1217.2890625	168.0740356445311	-305.2779235839844	1219.0107421875	-45.80359649658214	-3.683184623718276	885.1959228515625	119.2966384887695	-219.6443481445312	697.067626953125	-37.13846969604499	-22.02580833435061	942.5908203125	221.6100616455078	-198.1484069824218	745.6160278320312	-143.8451385498048	-352.9596557617188	339.1627807617188	-46.19966125488288	-149.8001251220703	530.8529663085938	123.6610412597656	-375.4125671386719	333.3172607421875	-133.6958923339845	-177.8123016357422	527.4072875976562	212.0011444091796	-200.228759765625	209.6532592773438	-109.6815872192383	23.13604354858396	451.0165405273438	201.7212677001953	-433.4135437011719	339.6094970703125	-92.97618865966804	-236.4153137207032	507.4913330078125	168.7568206787109	69.23875427246091	1093.275024414062	252.653579711914	83.45562744140626	1110.00390625	-135.8168182373047	114.9622955322265	1119.725341796875	296.4284667968749	143.5225830078125	1129.734130859375	-158.1049499511719	318.2196655273437	936.8604736328125	254.9833679199218	280.8060607910156	899.7488403320312	308.9840087890625	315.9876098632812	931.1192016601562	-102.9968414306641	276.62841796875	887.6121826171875	-153.5979461669922	371.9303894042969	915.548095703125	-192.1178283691406	370.7144775390624	925.933837890625	342.5251159667969	
238	1.975	235.9328460693359	1366.318481445312	159.9705505371093	243.5652008056641	1342.357788085938	30.05909729003901	190.1934509277343	1511.101440429688	147.6194305419921	195.6877136230469	1500.731201171875	3.152720212936333	34.74270248413085	1502.268676757812	60.44031906127921	15.22707366943358	1366.21142578125	71.43569946289054	57.45721435546872	1428.623291015625	217.1922302246093	64.11653137207033	1449.520141601562	-76.99519348144538	-143.3907623291016	1294.48291015625	63.42689895629874	-215.2120513916016	1523.983520507812	57.25842285156238	-456.2284545898438	1298.086303710938	129.3577728271483	-462.7308044433594	1296.609985351562	15.6167945861815	-293.4515380859375	1216.7919921875	168.136505126953	-305.8455810546875	1219.552734375	-45.23859405517589	-5.16358327865602	879.9623413085938	119.2562026977538	-214.7578887939453	700.9519653320312	-37.44745254516609	-24.12724685668948	937.33984375	221.5141296386718	-192.8308410644531	749.2257080078125	-144.3206939697266	-356.984375	347.0329284667969	-46.20608901977545	-144.3373565673828	522.6698608398438	123.3922882080078	-379.6766052246094	341.5755615234375	-133.7328491210938	-172.6574096679688	518.8137817382812	211.5569152832031	-206.6310424804688	215.1758270263672	-109.8122024536133	29.57942390441892	445.805908203125	201.9777679443359	-437.5943603515625	348.9398193359375	-92.99252319335946	-230.8118133544922	497.9854431152344	168.2659149169921	69.09677886962888	1093.147583007812	252.4850311279296	83.1586380004883	1109.794189453125	-135.5699615478516	114.7788467407226	1119.632202148438	296.2361145019531	142.9534606933594	1129.41162109375	-157.7079772949219	318.2053222656249	936.873046875	254.9566497802734	280.7615966796874	899.7514038085938	308.9370727539062	315.9049987792969	931.1400756835938	-103.0325393676758	276.5611877441406	887.6389770507812	-153.5889434814453	371.8919067382812	915.5855712890625	-192.1234588623047	370.6415100097656	925.96240234375	342.5086364746094	
239	1.983333333333333	235.4237060546875	1366.150634765625	159.6650695800781	243.0123596191406	1342.116821289062	29.81179046630854	189.6765747070312	1510.934936523438	147.2520599365234	195.2068023681641	1500.48876953125	2.773516178131036	34.28842544555663	1502.18359375	60.12364196777335	14.75299167633056	1366.068359375	71.17677307128898	57.14706802368161	1428.449829101562	216.8726959228515	63.48310852050782	1449.20068359375	-77.32594299316413	-143.8931579589844	1294.496948242188	63.36940002441397	-215.7024841308594	1524.042602539062	57.46907424926746	-456.4731140136719	1297.745727539062	129.9349822998045	-463.15966796875	1296.557739257812	16.10469245910631	-293.5591735839844	1216.324829101562	168.2447052001952	-306.177978515625	1219.81591796875	-45.11095428466808	-6.758622646331801	874.3888549804688	119.2263641357421	-209.9333038330078	705.1204223632812	-38.02422332763679	-26.35695457458499	931.7855224609375	221.4419860839843	-187.2901916503906	752.9813232421875	-144.7908782958985	-360.4757080078125	355.1251220703125	-46.30717849731452	-139.155517578125	514.3204956054688	122.9464340209961	-383.5885009765625	350.1663818359375	-133.794418334961	-167.6676330566407	510.11962890625	211.3903503417968	-212.6283721923828	221.0253143310547	-109.9002151489258	35.73365020751951	440.1488647460938	202.1728820800781	-441.3201599121094	358.6187133789062	-93.11192321777352	-224.8739318847657	488.0673217773438	167.1647338867187	68.97030639648435	1093.013671875	252.2657165527343	82.88534545898439	1109.608520507812	-135.3184051513672	114.6482543945312	1119.551025390625	296.0093688964843	142.6319122314453	1129.283203125	-157.616455078125	318.1740112304687	936.873779296875	254.90234375	280.7298889160156	899.7717895507812	308.8890686035156	315.9521789550781	931.5508422851562	-102.9330368041992	276.5131530761719	887.656005859375	-153.5970916748047	371.8453063964844	915.6023559570312	-192.1467590332031	370.5910339355468	926.0059814453125	342.4927062988281	
